<?xml version="1.0" standalone="no"?>
<!DOCTYPE svg PUBLIC "-//W3C//DTD SVG 20010904//EN"
 "http://www.w3.org/TR/2001/REC-SVG-20010904/DTD/svg10.dtd">
<svg version="1.0" xmlns="http://www.w3.org/2000/svg"
 width="501.000000pt" height="501.000000pt" viewBox="0 0 501.000000 501.000000"
 preserveAspectRatio="xMidYMid meet">

<g transform="translate(0.000000,501.000000) scale(0.100000,-0.100000)"
fill="#000000" stroke="none">
<path d="M1 3853 c1 -999 3 -1144 14 -1053 70 567 315 1075 711 1473 397 401
917 653 1482 722 93 11 -49 13 -1050 14 l-1158 1 1 -1157z"/>
<path d="M2792 4995 c147 -18 331 -58 468 -101 845 -268 1503 -991 1684 -1853
142 -673 12 -1361 -365 -1922 -242 -361 -588 -664 -972 -852 -130 -64 -300
-132 -357 -143 l-29 -6 5 283 c6 363 8 387 35 465 32 89 73 133 177 189 186
101 412 276 577 448 132 137 200 232 328 457 36 64 138 327 145 372 6 49 -20
119 -60 158 -26 26 -37 30 -84 30 -51 0 -57 -3 -97 -44 -23 -25 -105 -147
-182 -271 -157 -254 -308 -449 -389 -502 -30 -19 -114 -53 -205 -82 -171 -55
-288 -108 -428 -195 -95 -58 -145 -111 -248 -261 -124 -180 -135 -243 -135
-772 l0 -383 -149 0 -149 0 -6 54 c-4 29 -6 208 -5 397 1 281 -2 360 -15 432
-25 135 -98 266 -238 429 -87 101 -302 217 -552 297 -87 28 -180 64 -206 81
-71 46 -227 238 -335 415 -232 380 -253 405 -340 405 -48 0 -56 -3 -83 -34
-16 -19 -37 -54 -47 -80 -22 -57 -16 -85 60 -277 51 -129 204 -402 271 -483
72 -87 308 -315 392 -378 135 -101 276 -194 347 -230 65 -32 96 -63 125 -118
42 -83 48 -133 55 -477 4 -183 5 -333 2 -333 -16 0 -224 77 -301 112 -188 85
-423 228 -562 344 -514 427 -830 1002 -909 1652 -11 93 -13 -50 -14 -1055 l-1
-1163 2505 0 2505 0 0 2505 0 2505 -1162 -1 c-1006 -1 -1149 -3 -1056 -14z"/>
<path d="M2412 4494 c-103 -38 -200 -181 -242 -357 -25 -102 -27 -267 -5 -352
34 -127 137 -298 262 -429 l61 -65 56 57 c127 128 237 307 271 437 22 85 20
250 -5 352 -65 271 -230 419 -398 357z"/>
<path d="M1520 3445 c-8 -2 -32 -7 -54 -10 l-39 -6 6 -47 c13 -107 97 -302
170 -397 87 -111 215 -194 352 -229 105 -26 244 -39 364 -32 63 3 116 8 119
10 7 8 -67 215 -104 288 -125 249 -282 376 -518 417 -54 10 -259 13 -296 6z"/>
<path d="M3160 3435 c-200 -40 -340 -144 -453 -334 -69 -117 -159 -352 -142
-370 4 -3 82 -6 173 -6 235 1 373 33 503 117 141 92 250 258 308 468 32 115
32 116 -42 129 -84 15 -266 12 -347 -4z"/>
<path d="M1585 2599 c-55 -3 -114 -9 -131 -13 l-31 -7 13 -62 c53 -251 192
-461 366 -552 73 -39 209 -74 326 -85 104 -10 298 -4 307 10 7 11 -62 205
-101 282 -90 180 -194 293 -329 358 -126 60 -245 80 -420 69z"/>
<path d="M3265 2598 c-280 -19 -454 -139 -593 -411 -49 -95 -117 -281 -108
-296 9 -15 189 -21 301 -11 223 21 348 73 471 196 69 69 89 97 137 195 51 102
97 241 97 290 0 11 -9 21 -22 24 -55 13 -191 19 -283 13z"/>
</g>
</svg>
